<?xml version="1.0" encoding="UTF-8" standalone="no"?>
<!-- Created with Inkscape (http://www.inkscape.org/) -->

<svg
   xmlns="http://www.w3.org/2000/svg"
   width="376"
   height="265">
  <g
     transform="translate(0,-787.36218)">
    <g
       transform="matrix(0.36210379,0,0,0.36210379,5.9435278,672.8446)">
      <g
         transform="matrix(4.9224383,0,0,4.6692727,24.702099,220.10095)"
         id="g3026">
        <g>
          <path
             style="fill:#040303;stroke:#040303;stroke-width:0.09375"
             d="m 139.47,21.79 c 3.77,-0.52 7.58,-0.37 11.36,-0.05 -3.77,4.92 -8.99,8.52 -12.53,13.64 -2.9,3.94 -5.05,8.39 -6.35,13.1 8.94,-3.69 18.14,-7.89 28.07,-7.16 9.66,-0.73 19.78,4.97 23.12,14.25 1.62,10.3 1.04,21.3 -3.96,30.67 -4.93,10.29 -10.4,20.44 -17.82,29.17 -9.92,11.38 -20.62,22.27 -33.32,30.56 -7.71,5.56 -15.84,10.52 -24.46,14.56 -8.17,4.28 -17.35,6.02 -26.36,7.52 -8.04,0.97 -16.27,0.86 -24.19,-0.89 -4.9,4.07 -10.41,8.09 -17,8.51 -4.64,0.18 -9.83,0.9 -13.88,-1.92 -2.02,-1.12 -3.18,-3.19 -4.39,-5.06 2.54,-0.15 5.08,-0.28 7.62,-0.47 -1.67,-12.98 -3.63,-26.14 -2.06,-39.23 0.11,-9.09 2.7,-17.86 4.77,-26.64 -5.27,1.26 -11.23,3.84 -16.23,0.34 2.9,-4.06 7.59,-6.23 10.87,-9.93 6.59,-7.23 12.93,-14.8 17.7,-23.39 3.65,-5.93 5.63,-12.73 9.56,-18.51 0.34,2.26 0.65,4.52 1.04,6.77 4.12,-3.78 7.08,-8.61 11.21,-12.37 4.93,-4.56 10.4,-8.71 16.72,-11.13 3.09,-1.2 6.25,-2.27 9.16,-3.89 10.64,-5.86 22.94,-7.57 34.9,-8.32 5.48,-0.86 10.99,0.9 16.45,-0.13 m -29.51,2.96 c -7.16,1.18 -14.24,3.12 -20.69,6.49 -5.53,2.93 -11.69,4.56 -16.95,8.01 -9.05,5.62 -15.89,13.95 -21.72,22.71 -0.59,-1.85 -1.14,-3.72 -1.75,-5.57 -3.08,4.92 -5.13,10.39 -8.11,15.36 -6.84,11.76 -16.11,22 -26.67,30.53 5.61,2.29 11.21,-1.52 16.71,-2.5 -1.97,6.92 -4.46,13.73 -5.41,20.89 -0.83,4.73 -0.86,9.55 -1.42,14.31 -0.79,6.35 0.53,12.67 0.77,19.01 0.2,4.78 2.12,9.45 1.63,14.24 -1.7,1.11 -3.69,1.66 -5.56,2.42 1.88,1.37 3.66,3.06 5.97,3.67 7.94,1.62 16.43,-0.78 22.6,-5.98 8.14,-6.66 12.63,-16.64 15.68,-26.48 4.59,-18.04 4.62,-36.81 7.78,-55.09 1.43,-8.6 1.71,-17.4 3.89,-25.87 1.35,-0.2 3.08,0.06 4.03,-1.16 6.14,-7.41 12.57,-15.07 21.01,-19.95 -4.33,10.1 -10.73,19.2 -14.61,29.51 -6.37,16.37 -11.92,33.38 -13.06,51.02 -0.53,4.21 -0.92,8.59 0.8,12.6 0.71,-1.45 1.92,-2.78 2,-4.45 0.51,-0.67 0.91,-1.4 1.21,-2.18 3.19,-3.89 5.79,-8.25 9.26,-11.92 1.71,-2.05 3.88,-3.87 4.91,-6.39 0.5,-3.24 -0.43,-7.03 2.01,-9.68 4.66,-5.8 8.63,-12.2 14.01,-17.39 0.05,2.78 -0.19,5.56 -0.47,8.32 6.19,-6.49 12.63,-12.72 18.72,-19.31 -0.36,-1.99 -2.17,-4.79 0.08,-6.25 7.65,-6.14 16.59,-11.13 26.4,-12.58 3.43,-0.65 6.87,0.29 10.16,1.16 -4.59,2.86 -9.8,4.53 -14.36,7.46 -8.28,5.17 -15.88,11.42 -22.75,18.34 -12.78,14.35 -23.67,30.65 -30.3,48.77 -2.72,7.25 -6.86,14.06 -12.74,19.18 -4.53,4.38 -10.29,7.05 -15.36,10.69 12.61,1.03 24.66,-5.01 33.79,-13.3 3.56,-2.5 0.99,-7.47 3.28,-10.69 3.27,-4.28 7.51,-7.74 11.9,-10.83 0.3,5.31 -1.45,10.35 -2.69,15.43 3.94,-2.16 7.95,-4.38 11.15,-7.58 0.99,-4.68 0.11,-9.61 1.54,-14.23 1.59,-2.14 3.92,-3.57 5.63,-5.61 0.11,-3.01 -2.53,-5.6 -2,-8.72 0.66,-4.96 2.65,-9.65 4.91,-14.09 2.05,-3.76 4,-7.81 7.58,-10.38 -1.33,11.2 -4.27,22.16 -5.78,33.34 -0.83,7.46 -4.32,14.31 -8.78,20.24 -3.11,4.09 -6.21,8.31 -10.32,11.48 -15.15,11.17 -32.91,18.31 -51.12,22.73 -2.47,0.56 -4.87,1.41 -7.15,2.5 5.95,0.49 12.15,1.15 17.96,-0.65 l -1.14,-0.2 c 4.94,0.5 9.82,-0.76 14.52,-2.14 12.81,-4 24.57,-10.79 35.44,-18.57 6.89,-4.67 13.59,-9.68 19.47,-15.58 5.88,-6.14 12.27,-11.84 17.17,-18.82 7.89,-10.23 13.95,-21.86 18.15,-34.07 3.01,-8.55 3.38,-19.09 -2.64,-26.46 -5.99,-7.32 -16.49,-9.07 -25.38,-7.53 -8.24,1.15 -15.57,5.17 -23.19,8.18 1.52,-7.91 5.29,-15.44 11,-21.16 2.32,-2.32 4.64,-4.65 6.65,-7.26 -4.62,-0.65 -9.02,1.05 -13.53,1.57 -7.95,-1.76 -16.18,-0.95 -24.12,0.46 M 82.3,60.41 c -1.55,2.43 -4.96,3.57 -5.39,6.65 -1.83,11.31 -3.28,22.67 -4.85,34.01 -1.38,13.07 -2.22,26.26 -5.12,39.1 -2.22,9.2 -6.87,17.47 -11.74,25.48 6.19,-0.47 12.11,-2.5 18.03,-4.24 12.22,-3.64 24.25,-8.25 35.11,-15.02 5.26,-3.3 10.97,-6.54 14.25,-12.03 -4.11,1.72 -7.61,4.54 -11.51,6.66 1.12,-5.3 4.28,-10.34 3.45,-15.91 -2.95,2.55 -6.07,5.01 -8.34,8.22 -2.29,3.35 -0.19,8.45 -3.71,11.08 -10.45,9.84 -25.37,15.94 -39.76,12.9 5.39,-3.55 11.6,-5.75 16.51,-10.04 7.06,-5.28 12.15,-12.81 15.21,-21.02 10.24,-26.41 27.57,-50.69 51.45,-66.35 4.23,-2.96 9.17,-4.67 13.43,-7.56 -12.38,-0.98 -23.63,5.82 -32.86,13.36 0.83,1.19 1.65,2.38 2.49,3.57 -5.46,6.41 -11.8,11.99 -17.35,18.3 -1.82,2.09 -3.84,3.98 -5.95,5.75 0.25,-2.56 0.58,-5.11 0.71,-7.68 -3.75,3.56 -6.59,7.9 -9.83,11.9 -1.36,1.9 -3.18,3.94 -2.75,6.46 -0.2,2.01 1.03,4.47 -0.63,6.1 -5.61,6.21 -11.44,12.47 -15.06,20.11 -1,2.24 -2.35,4.3 -3.88,6.2 -1.11,-5.38 -1.97,-10.9 -1.13,-16.39 0.66,-19.08 7.06,-37.37 14.22,-54.88 2.83,-7.07 7.56,-13.2 10.12,-20.38 -5.97,4.21 -10.89,9.74 -15.12,15.65 m 49.59,38.76 c -1.4,3.43 1.35,6.46 1.82,9.77 0.17,2.08 -1.96,3.23 -3.13,4.64 -4.46,3.58 -3.95,9.97 -3.73,15.09 5.83,-5.65 8.37,-13.8 9.35,-21.68 1.04,-8.3 3.42,-16.39 4.14,-24.73 -4.57,4.54 -6.55,10.92 -8.45,16.91 z"/>
          <path
             style="fill:#040303;stroke:#040303;stroke-width:0.09375"
             d="m 122.35,42.36 c 1.1,-1.88 2.74,-3.33 4.49,-4.59 -2.02,4.38 -4.67,8.5 -5.99,13.19 -1.29,3.65 -1.7,8.21 -5.53,10.2 -0.38,-7 3.45,-13.13 7.03,-18.8 z"
             id="path3005" />
          <path
             style="fill:#040303;stroke:#040303;stroke-width:0.09375"
             d="m 166.62,55.73 c 0.87,-0.62 2.31,-0.14 2.76,0.81 1.73,3.2 1.19,7 1.33,10.49 0.18,8.78 -3.25,17.09 -7.02,24.85 -4.61,8.93 -10.25,17.33 -16.54,25.17 0.18,-4.04 0.3,-8.09 0.97,-12.08 1.89,-12.24 4.18,-24.54 8.84,-36.07 2.08,-5.04 4.81,-10.28 9.66,-13.17 m -4.49,6.47 c -4.59,7.34 -7.25,15.72 -9.14,24.12 -1.85,8.33 -3.73,16.71 -4.19,25.26 5.14,-5.08 8.52,-11.61 12.18,-17.76 5.78,-11.22 11.39,-24.48 7.04,-37.15 -2.22,1.53 -4.47,3.18 -5.89,5.53 z"
             id="path3007" />
          <path
             style="fill:#040303;stroke:#040303;stroke-width:0.09375"
             d="m 95.45,79.38 c 0.57,-1.64 1.94,-2.75 3.08,-3.97 -1.54,5.71 -2.93,11.47 -2.99,17.42 0.19,2.09 -1.55,3.46 -3.13,4.46 -0.13,-6.09 0.94,-12.2 3.04,-17.91 z"
             id="path3009" />
        </g>
        <g>
          <path
             style="fill:#cc0308;stroke:#cc0308;stroke-width:0.09375"
             d="m 95.51,31.4 c 9.38,-3.54 19.42,-5.07 29.42,-5.18 -10.34,9.73 -20.67,20.36 -25.75,33.9 -3.9,11.81 -8.15,23.72 -8.94,36.25 -0.53,3.81 0.04,7.91 -1.54,11.49 -3.86,5.94 -9.79,10.97 -10.61,18.43 -0.3,0.78 -0.7,1.51 -1.21,2.18 -0.31,-4.02 -0.16,-8.07 0.65,-12.03 2.66,-13.96 4.86,-28.2 10.66,-41.28 6.46,-13.82 13.4,-27.42 19.64,-41.34 -11.84,2.91 -19.88,12.71 -27.42,21.57 1.5,-6.09 3.06,-12.3 6.32,-17.72 1.88,-3.26 5.39,-4.99 8.78,-6.27 z"
             id="path3012" />
          <path
             style="fill:#cc0308;stroke:#cc0308;stroke-width:0.09375"
             d="m 106.2,59.15 c 5.29,-12.81 13.51,-25.29 26.05,-31.96 -3.15,3.83 -6.85,7.2 -9.74,11.25 -5.24,7.48 -10.22,15.74 -10.47,25.14 0.57,0.53 1.7,1.58 2.27,2.11 6.43,-3.97 7.53,-11.82 10.25,-18.23 3.43,-7.91 8.48,-15.29 15.33,-20.63 -5.96,9.01 -11.59,18.39 -14.37,28.93 12.54,-6.05 26.13,-11.48 40.34,-10.24 6.74,0.61 12.66,6.02 13.91,12.67 2.05,9.8 -1.05,19.78 -4.73,28.8 -6.14,15 -16.18,28.09 -27.8,39.27 -8.19,8.7 -18.07,15.51 -28.03,22.01 -7.29,4.69 -15.09,8.58 -23.1,11.89 -6.35,2.63 -13.16,3.87 -19.69,5.97 -1.5,-0.21 -3,-0.42 -4.49,-0.67 10.09,-3.07 20.43,-5.71 29.74,-10.81 11.28,-6.12 22.54,-13.25 30.02,-23.93 5.12,-6.78 6.99,-15.26 8.5,-23.44 1.26,-6.68 2.46,-13.38 3.34,-20.12 0.85,-6.98 3.4,-13.62 4.28,-20.59 -3.28,2.06 -6.18,4.73 -8.18,8.07 -6.53,10.03 -12.53,21.4 -12.11,33.7 0.24,3.01 -2.39,5.12 -3.08,7.88 -0.91,3.9 -0.37,8.03 -1.48,11.89 -1.32,1.66 -3.12,2.83 -4.78,4.13 0.57,-4.8 1.88,-9.73 0.21,-14.46 -5.94,3.29 -11.61,7.49 -15.33,13.27 -2.47,3.91 -1.27,9.73 -5.43,12.58 -6.58,4.84 -14,8.44 -21.64,11.29 5.01,-4.64 10.56,-8.72 15.13,-13.82 3.56,-3.97 4.95,-9.23 6.97,-14.04 2.86,-7.08 7.26,-13.37 10.83,-20.09 2.82,-5.34 6.3,-10.29 9.89,-15.13 10.19,-14.37 23.54,-27.09 39.83,-34.18 -3.65,8.79 -6.6,17.87 -8.81,27.12 -1.66,7.03 -2.43,14.22 -3.78,21.3 -1.15,6.38 -2.92,12.63 -4.08,19.01 7.82,-7.06 13.84,-15.81 19.54,-24.6 6.2,-9.79 11.83,-20.6 11.95,-32.47 0.28,-6.59 -0.65,-14.88 -7.14,-18.33 -6.08,-2.41 -12.91,-1.04 -19.02,0.59 -8.04,2.62 -16.14,5.86 -22.75,11.26 -3.33,2.48 -1.21,7.32 -3.57,10.37 -2.71,3.81 -6.23,6.94 -9.47,10.29 0.58,-3 1.1,-6 1.49,-9.03 -6.71,2.47 -10.32,8.86 -14.75,14 1.36,-9.66 4.68,-18.88 7.95,-28.02 m 8.69,50.67 c 1.17,-0.18 2.34,-0.34 3.53,-0.46 0.76,-2.26 1.21,-4.57 1.04,-6.96 -1.99,2.16 -3.43,4.73 -4.57,7.42 z"
             id="path3014" />
          <path
             style="fill:#cc0308;stroke:#cc0308;stroke-width:0.09375"
             d="m 54.52,60.49 c 6.34,-9.52 14.97,-17.74 25.51,-22.42 -1.55,8.61 -5.55,16.58 -6.68,25.29 -4.39,22.84 -3.71,46.34 -8.87,69.05 -1.77,7.71 -3.39,15.69 -7.61,22.51 -4.16,6.65 -9.4,13.22 -16.96,16.12 -4.35,2.09 -9.32,1.84 -13.9,0.78 5.78,-1.12 11.49,-2.95 16.32,-6.41 5.29,-3.22 8.27,-8.91 10.77,-14.36 2.95,-6.38 3.45,-13.47 5.05,-20.23 0.43,-2.85 2.03,-6.4 -0.81,-8.52 -2.99,2.46 -5.61,6.98 -10.05,6.36 -3.84,-0.87 -5.8,-5.11 -6.04,-8.73 -0.61,-10.35 0.16,-20.83 2.79,-30.88 2.39,-9.85 5.14,-19.84 10.48,-28.56 m 7.6,3.72 c -4.2,9.35 -6.49,19.49 -7.48,29.67 -0.56,5.86 -1.41,11.76 -0.64,17.65 2.3,-3.15 2.98,-7.04 3.76,-10.77 2.57,-14.09 3.6,-28.6 8.85,-42.06 -1.95,1.42 -3.61,3.23 -4.49,5.51 z"
             id="path3016" />
          <path
             style="fill:#cc0308;stroke:#cc0308;stroke-width:0.09375"
             d="m 22.01,100.07 c 9.72,-9.68 17.25,-21.2 23.94,-33.11 -3.75,14.09 -9.43,27.7 -11.93,42.12 -0.92,6.4 -2.02,12.99 -0.44,19.38 0.66,3.21 2.38,6.12 2.93,9.35 -0.71,2.33 -2.09,4.37 -3.21,6.52 -2.48,4.38 -3.92,9.22 -5.95,13.81 -1.46,-6.95 -1.26,-14.1 -1.18,-21.17 0.02,-11.71 3.01,-23.16 6.54,-34.24 0.92,-2.81 0.93,-5.79 1.03,-8.72 -3.69,2.42 -7.48,4.76 -11.73,6.06 z"
             id="path3018" />
        </g>
      </g>
    </g>
  </g>
</svg>
